<?xml version="1.0" encoding="UTF-8"?>
<svg width="843px" height="408px" viewBox="0 0 843 408" version="1.1" xmlns="http://www.w3.org/2000/svg" xmlns:xlink="http://www.w3.org/1999/xlink">
    <!-- Generator: Sketch 51.3 (57544) - http://www.bohemiancoding.com/sketch -->
    <title>Blog Header</title>
    <desc>Created with Sketch.</desc>
    <defs></defs>
    <g id="Blog-Header" stroke="none" stroke-width="1" fill="none" fill-rule="evenodd" stroke-linejoin="round">
        <path d="M300.8,361.2 L252.4,361.2 L62.4,46.4 L62.4,42 L146.8,42 L288,281.6 L300.8,231.2 L300.8,361.2 Z M290.8,142.4 C288,79.6 253.2,54 253.2,54 L332,54 C292.8,74.4 290.8,142.4 290.8,142.4 Z M113.4,368.2 L33.8,368.2 C73.4,345 75,272.2 75,272.2 C78.2,344.2 113.4,368.2 113.4,368.2 Z M253,380.2 L217.4,380.2 L27.4,65.4 L27.4,61 L111.8,61 L253,300.6 L253,380.2 Z" id="Combined-Shape" stroke="#C29BC9" stroke-width="9" fill-opacity="0" fill="#C29BC9" stroke-linecap="round"></path>
        <path d="M353.9,183.84 C347,215.81 370.46,227.54 370.46,227.54 L324,227.54 C346.31,216.5 353.9,183.84 353.9,183.84 Z M482.24,227.54 L432.79,227.54 L435.78,225.24 L422.44,183.84 C416,163.83 382.19,150.72 366.09,148.42 L411.17,148.42 L386.56,69.99 L393.69,44 L422.21,44 L479.02,225.01 L482.24,227.54 Z M552.88,44 L552.88,227.54 L507.34,227.54 L511.02,224.78 L511.02,46.76 L507.34,44 L552.88,44 Z M626.71,97.59 C624.87,86.32 615.21,47.68 571.28,44 L626.71,44 L626.71,97.59 Z M571.28,227.54 C584.16,225.7 629.7,215.81 634.07,170.5 L634.07,227.54 L571.28,227.54 Z M596.81,161.76 C596.58,159.92 591.06,137.61 566.45,133.24 C591.06,128.64 596.81,105.18 596.81,105.18 L596.81,161.76 Z M659.17,227.54 L663.08,224.78 L663.08,46.76 L659.17,44 L708.16,44 L704.48,46.53 L704.48,227.54 L659.17,227.54 Z M729.32,227.54 C740.82,225.93 781.07,212.82 784.98,171.65 L784.98,227.54 L729.32,227.54 Z" id="ael" stroke="#C29BC9" stroke-width="7"></path>
        <path d="M355.65,358.15 L325.8,358.15 C340.65,349.45 341.25,322.15 341.25,322.15 C342.45,349.15 355.65,358.15 355.65,358.15 Z M417.3,358.15 L399.15,358.15 L327.9,240.1 L324,238.45 L359.55,238.45 L412.5,328.3 L417.3,309.4 L417.3,358.15 Z M417.3,271.6 C416.25,248.05 403.2,238.45 403.2,238.45 L432.75,238.45 C418.05,246.1 417.3,271.6 417.3,271.6 Z M495.75,238.45 C492.6,240.55 479.55,245.35 478.65,273.25 C478.65,273.25 478.2,286.75 478.2,298.3 C478.2,310.15 478.65,322.75 478.65,322.75 C479.55,351.4 491.1,355 495.6,358.15 C485.4,358.15 447.75,349.9 447.75,298.3 C447.75,245.8 485.4,238.45 495.75,238.45 Z M507,238.45 C517.35,238.45 555,245.8 555,298.3 C555,349.9 517.35,358.15 507.15,358.15 C511.65,355 523.05,351.4 524.1,322.75 C524.1,322.75 524.55,310.15 524.55,298.3 C524.55,286.75 524.1,273.25 524.1,273.25 C523.2,245.35 510.6,240.85 507,238.45 Z M646.95,357.85 C631.8,355.6 628.05,341.05 628.05,329.5 C628.05,313.9 627.3,300.7 619.05,296.95 C622.5,295.3 627.45,293.5 628.2,279.4 C628.2,279.4 628.65,273.25 628.65,267.4 C628.65,261.7 628.2,255.1 628.2,255.1 C627.6,241.3 621.6,239.2 619.05,238 C627,238 658.65,241.6 658.65,267.4 C658.65,290.65 634.05,295.9 623.4,296.65 C629.85,297.4 651.9,300.7 656.55,320.8 C659.25,332.35 654.45,339.55 659.1,346 C663,351.4 669.9,351.1 675,348.4 C673.95,349.6 662.55,360.1 646.95,357.85 Z M570,357.85 L572.55,356.05 L572.55,239.95 L570,238.15 L599.7,238.15 L599.7,356.05 L601.95,357.85 L570,357.85 Z M719.7,238.45 L719.7,358.15 L690,358.15 L692.55,356.35 L692.55,240.25 L690,238.45 L719.7,238.45 Z M738.45,238.45 C748.8,238.45 788.85,245.8 788.85,298.3 C788.85,349.9 748.65,358.15 738.45,358.15 C742.95,355 756.45,351.4 757.35,322.75 C757.35,322.75 757.95,310.15 757.95,298.3 C757.95,286.75 757.35,273.25 757.35,273.25 C756.6,245.35 741.75,241 738.45,238.45 Z" id="nord" stroke="#C29BC9" stroke-width="7"></path>
    </g>
</svg>