<?xml version="1.0" encoding="utf-8"?>
<!-- Generator: Adobe Illustrator 19.2.0, SVG Export Plug-In . SVG Version: 6.00 Build 0)  -->
<svg version="1.1" id="Layer_1" xmlns="http://www.w3.org/2000/svg" xmlns:xlink="http://www.w3.org/1999/xlink" x="0px" y="0px"
	 viewBox="0 0 850 410" style="enable-background:new 0 0 850 410;" xml:space="preserve">
<style type="text/css">
	.st0{fill:none;stroke:#BA90C2;stroke-width:4;stroke-miterlimit:10;}
	.st1{fill:#BA90C2;}
	.st2{font-family:'RegattiaStencil-Bold';}
	.st3{font-size:147px;}
</style>
<g>
	<g>
		<g id="orbit_8_">
			<path class="st0" d="M40.2,96.2c-18.3-11.8-28-22.1-25.7-28.9c3.2-9.4,29.1-9.8,66.6-2.8"/>
			<path class="st0" d="M271.2,131c30.5,16.5,48.2,31.5,45.2,40.3c-5.5,16.1-77.6,5.8-161-22.9c-24-8.3-46.4-17.2-65.9-26.1
				c-2.4-1.1-4.7-2.2-7-3.3"/>
			<path class="st0" d="M140.4,79c11.3,3.3,23.1,7.1,35,11.2c9.9,3.4,19.6,7,28.9,10.6"/>
		</g>
		<g>
			<polyline class="st0" points="238.8,50.3 272.1,69.5 272.1,186.2 238.8,205.5 204.9,159.7 			"/>
			<polyline class="st0" points="103.5,205.6 70,186.2 70,69.5 			"/>
			<polyline class="st0" points="136.5,69.8 103.3,50.3 70,69.5 103.6,89.4 			"/>
			<path class="st0" d="M170.7,89.8"/>
			<polyline class="st0" points="238.9,89.1 272.1,69.5 238.8,50.3 205.2,69.8 			"/>
			<polyline class="st0" points="137.3,109.4 170.7,129.2 204.3,109.4 			"/>
			<path class="st0" d="M103.6,89.4"/>
			<path class="st0" d="M137.1,184.8"/>
			<polyline class="st0" points="99,129 99,205.5 120.9,191.8 			"/>
			<polyline class="st0" points="149.5,102.2 136.6,69.7 103.6,89.4 			"/>
			<path class="st0" d="M157,121.1"/>
			<path class="st0" d="M170.7,155.6"/>
			<path class="st0" d="M204.8,184.8"/>
			<polyline class="st0" points="205.2,69.8 238.9,89.1 238.8,155.6 			"/>
			<path class="st0" d="M192.1,102.3"/>
			<path class="st0" d="M184.6,121"/>
			<path class="st0" d="M170.7,155.6"/>
			<path class="st0" d="M137.3,109.4"/>
			<path class="st0" d="M115.5,122.2"/>
			<polyline class="st0" points="205,159.7 205.9,224.7 171.1,244.6 136.9,224.7 125.5,192 119.7,175.5 103.6,129.2 			"/>
			<polyline class="st0" points="136.9,166.9 137.3,109.4 149.5,102.3 170.7,89.8 192.1,102.3 204.3,109.4 			"/>
			<polyline class="st0" points="171.1,244.6 171.1,244.6 170.7,129.2 			"/>
			<path class="st0" d="M238.9,166.9"/>
			<path class="st0" d="M119.7,175.5"/>
			<path class="st0" d="M103.6,166.9"/>
			<path class="st0" d="M204.3,109.4"/>
			<path class="st0" d="M136.6,69.7"/>
			<line class="st0" x1="205.1" y1="109.4" x2="205.2" y2="69.8"/>
			<path class="st0" d="M204.9,159.7"/>
			<line class="st0" x1="204.3" y1="109.4" x2="238.9" y2="155.6"/>
			<line class="st0" x1="103.6" y1="89.4" x2="137.3" y2="166.9"/>
			<line class="st0" x1="205.8" y1="224.5" x2="171.1" y2="244.6"/>
			<path class="st0" d="M171.1,11.1"/>
			<path class="st0" d="M238,204.2"/>
			<path class="st0" d="M136.6,224.7"/>
			<path class="st0" d="M272.1,186.2"/>
			<path class="st0" d="M170.7,202.7"/>
			<path class="st0" d="M70,186.2"/>
			<path class="st0" d="M170.7,202.7"/>
			<path class="st0" d="M136.6,224.7"/>
			<line class="st0" x1="115" y1="182.6" x2="114.3" y2="160.1"/>
			<line class="st0" x1="109.7" y1="188" x2="108.8" y2="144.2"/>
			<line class="st0" x1="120.3" y1="191.7" x2="119.7" y2="175.5"/>
			<line class="st0" x1="210.8" y1="118.1" x2="211" y2="72.7"/>
			<line class="st0" x1="216.7" y1="113.8" x2="216.5" y2="75.9"/>
			<line class="st0" x1="222.1" y1="99.2" x2="221.8" y2="79.8"/>
			<line class="st0" x1="227.3" y1="139.9" x2="227.5" y2="82.7"/>
			<line class="st0" x1="233.2" y1="123.9" x2="233" y2="86"/>
			<line class="st0" x1="115.5" y1="197.5" x2="115.2" y2="186.2"/>
			<line class="st0" x1="109.9" y1="201.6" x2="109.7" y2="197.3"/>
			<line class="st0" x1="238.8" y1="205.5" x2="204.9" y2="178.7"/>
		</g>
		<circle id="planet_8_" class="st0" cx="61.8" cy="107.2" r="17.5"/>
	</g>
</g>
<text transform="matrix(1 0 0 1 323.0955 205.1013)" class="st1 st2 st3">Nael s</text>
<g>
	<text transform="matrix(1 0 0 1 85.4547 359.5815)" class="st1 st2 st3">Knapsack</text>
</g>
<g>
	<text transform="matrix(-1 0 0 1 694.9556 167.2363)" class="st1 st2 st3">‘</text>
</g>
</svg>
